<?xml version="1.0" encoding="UTF-8"?>
<svg viewBox="0 0 960 288" xmlns="http://www.w3.org/2000/svg" xmlns:xlink="http://www.w3.org/1999/xlink" version="1.1">
 <!-- Generated by Pixelmator Pro 2.1.5 -->
 <path id="Bottom-edge" d="M950 57 C950.257 67.749 952.768 83.769 939 87 804.808 118.492 583.927 152.481 382 195 372.671 196.964 366.989 205.059 359 212 322.538 243.676 276.452 266.989 229 276 173.14 286.607 66.211 269.145 61 259 L61 253 M90 250 C87.806 247.112 34.585 240.656 33 235 32.518 233.28 32.582 229.188 32 227 M67 222 C64.559 216.79 18.236 211.385 14.081 207.356 11.15 204.514 10.381 197.992 11 197 M58 190 C56.479 183.521 13.006 181.551 13 176 12.998 174.201 11.915 171.155 12 169 M58 152 C56.528 147.586 36.432 149.655 24 147 19.632 146.067 19.301 142.566 20 141 L20 141" fill="none" stroke="#000000" stroke-width="3" stroke-opacity="1" stroke-linejoin="round" stroke-linecap="round"/>
 <path id="Top-edge" d="M20 135 C22.902 128.498 73.31 92.416 156 78 238.82 63.561 267.155 83.43 310 93 322.366 95.762 335.602 96.617 348 94 522.27 57.214 701.233 33.518 874 9 899.438 5.39 932.355 16.634 945 39 951.96 51.311 952.768 77.769 939 81 804.808 112.492 583.927 146.481 382 189 372.671 190.964 366.989 199.059 359 206 322.538 237.676 276.452 260.989 229 270 173.14 280.607 67.211 263.145 62 253 57.45 244.143 98.933 251.913 98 248 96.359 241.118 34.585 234.656 33 229 32.518 227.28 29.708 223.987 34.784 223.127 47.21 221.021 75.779 222.789 75 220 72.501 211.048 18.236 205.385 14.081 201.356 11.15 198.514 8.388 193.08 14.541 192.333 29.655 190.497 65.021 192.209 64 187 62.479 179.24 13.006 175.551 13 170 12.998 168.201 11.868 164.913 15.311 163.274 29.08 156.717 66.641 152.921 65 148 63.528 143.586 36.432 143.655 24 141 19.632 140.067 19.301 136.566 20 135 Z" fill="none" stroke="#000000" stroke-width="3" stroke-opacity="1" stroke-linejoin="round" stroke-linecap="round"/>
 <path id="Path" d="M350.592 170.789 C329.613 198.49 300.01 221.334 268 232 232.749 243.746 175.628 253.828 136 225 118.355 212.164 111.815 191.1 124 173 145.637 140.86 198.596 132.954 248 137 268.694 138.695 293.079 149.353 316 148 330.535 147.142 345.775 135.668 358 136 366.541 136.232 374.143 139.482 375 146 376.511 157.497 357.593 161.544 350.592 170.789 Z" fill="none" stroke="#000000" stroke-width="3" stroke-opacity="1" stroke-linejoin="round" stroke-linecap="round"/>
 <path id="Path-1" d="M305 192 C306.835 205.772 263.701 225.046 238.871 227.663 229.138 228.689 208.141 232.042 193.583 230.123 179.302 228.24 157.685 220.344 159 206 161.39 179.926 212.062 179.55 232 177 250.956 174.575 302.802 175.502 305 192 Z" fill="none" stroke="#000000" stroke-width="3" stroke-opacity="1" stroke-linejoin="round" stroke-linecap="round"/>
 <path id="Path-2" d="M410.018 162.073 C396.948 164.289 370.037 169.944 360.947 181.418 336.672 212.059 295.775 235.008 273.03 243.011 247.143 252.12 211.856 257.253 181.252 253.768 156.894 250.994 135.722 246.356 118 233 107.107 224.791 98.069 210.179 95.019 199.143 92.3 189.308 90.826 178.118 94.341 168.538 96.85 161.697 99.971 158.554 108.842 152.181 122.343 142.482 103.567 136.42 109.378 127.5 119.826 111.463 176.096 100.797 220 100 244.081 99.563 284.757 107.838 305 115 324.416 121.869 338.04 118.086 351 116 498.261 92.294 685.404 55.139 854 30 875.919 26.732 908.871 24.12 917 42 928.049 66.302 914.463 69.14 876 77 764.278 99.831 466.372 152.521 410.018 162.073 Z" fill="none" stroke="#000000" stroke-width="3" stroke-opacity="1" stroke-linejoin="round" stroke-linecap="round"/>
 <path id="Path-3" d="M368 113 C368 113 338.646 116.847 323 115 312.111 113.715 300.511 107.065 289 104 270.237 99.005 254.11 94.391 232 92 208.139 89.42 183.798 88.893 160 92 138.113 94.857 118.402 100.273 96 109 87.387 112.355 66.288 119.134 66 125 65.546 134.25 88.214 132.361 90 142 91.095 147.909 84.54 153.063 80 157 73.58 162.568 56.816 165.291 57 168 57.383 173.644 76.777 172.941 81 181 82.975 184.768 82.319 190.407 79.611 193.687 75.519 198.643 60.776 195.653 61.189 199.375 61.586 202.947 77.906 203.435 84 209 88.184 212.821 94.14 218.753 92 224 89.918 229.104 76.162 227.284 76.233 228.985 76.364 232.143 91.433 230.491 98 234 104.863 237.668 116.013 242.285 115 250 114.359 254.88 104.797 251.544 106 255 107.295 258.721 143 262 143 262 143 262 177.68 266.214 195 265 227.909 262.694 243.78 260.005 266.677 251.904 280.395 247.051 299.783 239.031 314.38 229.173 330.371 218.374 343.893 204.161 357 190 361.031 185.644 368 176 368 176" fill="none" stroke="#000000" stroke-width="3" stroke-opacity="1" stroke-linejoin="round" stroke-linecap="round"/>
 <path id="Path-4" d="M399 136 C397.822 129.354 416 125 416 125 L860 47 C860 47 886.139 39.742 889 49 891.382 56.709 870 64 870 64 L421 141 C421 141 400.312 143.405 399 136 Z" fill="none" stroke="#000000" stroke-width="3" stroke-opacity="1" stroke-linejoin="round" stroke-linecap="round"/>
</svg>
